<svg width="69" height="39" viewBox="0 0 69 39" fill="none" xmlns="http://www.w3.org/2000/svg">
<path d="M26.8025 0.0139521C26.4902 0.0771327 26.2109 0.250131 26.0154 0.501601C25.8198 0.753071 25.7208 1.06635 25.7364 1.38454V22.8572C25.6989 23.1795 25.7804 23.5044 25.9655 23.7709C25.9874 23.8228 26.0127 23.8733 26.041 23.922C26.0403 23.9472 26.0403 23.9724 26.041 23.9975C26.131 24.0881 26.2336 24.1652 26.3456 24.2266C26.5042 24.3411 26.6862 24.4193 26.8785 24.4556C27.0296 24.4819 27.1842 24.4819 27.3353 24.4556H67.2348C67.4163 24.461 67.5969 24.4292 67.7656 24.3622C67.9343 24.2952 68.0876 24.1945 68.2159 24.0661C68.3443 23.9377 68.4451 23.7845 68.512 23.6158C68.579 23.4471 68.6108 23.2665 68.6054 23.085V1.61238C68.6237 1.48609 68.6237 1.35781 68.6054 1.23151C68.599 1.10164 68.5735 0.97344 68.5299 0.850942C68.5057 0.824763 68.4805 0.79955 68.4543 0.775393C68.4172 0.66783 68.3664 0.56547 68.3033 0.470816C68.2791 0.444638 68.2539 0.419425 68.2277 0.395267C68.2036 0.369089 68.1784 0.343876 68.1522 0.319718C68.0068 0.195358 67.8363 0.103839 67.6524 0.0512805C67.4684 -0.00127779 67.2753 -0.0136412 67.0862 0.0151418C67.0359 0.0122833 66.9854 0.0122833 66.9351 0.0151418H27.1112C27.0609 0.0122833 27.0104 0.0122833 26.9601 0.0151418C26.9098 0.0122833 26.8593 0.0122833 26.809 0.0151418L26.8025 0.0139521ZM7.30958 7.85694C7.14371 7.91523 6.99103 8.00584 6.86034 8.12344C6.72966 8.24104 6.62355 8.38327 6.54814 8.54209L0.228302 19.5831C0.0905395 19.7861 0.0115387 20.0232 0 20.2683V30.6239C0.00480972 30.7989 0.0440927 30.9713 0.11561 31.1311C0.187128 31.291 0.289476 31.4352 0.416785 31.5554C0.544093 31.6757 0.693864 31.7696 0.857531 31.8319C1.0212 31.8942 1.19555 31.9236 1.37059 31.9185H6.24381C6.53872 31.92 6.82582 31.8237 7.06006 31.6445C7.29431 31.4653 7.46246 31.2135 7.53813 30.9284C8.6234 26.8498 12.3344 23.8472 16.7517 23.8472C18.2224 23.8472 19.6079 24.1557 20.8635 24.7609C21.0897 24.8591 21.3388 24.8925 21.583 24.8574C21.8271 24.8224 22.0568 24.7203 22.2463 24.5624C22.4358 24.4045 22.5777 24.197 22.6562 23.9632C22.7347 23.7294 22.7467 23.4783 22.6909 23.238V9.15124C22.6815 8.8109 22.5421 8.48716 22.3013 8.24643C22.0605 8.00571 21.7367 7.86631 21.3963 7.85694H7.76644C7.71612 7.85408 7.66569 7.85408 7.61537 7.85694C7.51418 7.84529 7.41077 7.84529 7.30958 7.85694ZM8.52788 10.5218H20.0258V21.7152C18.9714 21.4116 17.9037 21.182 16.7514 21.182C11.5025 21.182 7.11806 24.5777 5.4061 29.2533H2.66491V20.6491L8.52788 10.5218ZM23.833 26.8167C22.9624 26.9068 22.419 28.0306 22.843 28.7964L25.2796 33.4413C25.5993 34.0658 26.4065 34.3699 27.031 34.0505C27.6555 33.7308 27.9596 32.8475 27.6402 32.223L26.1933 29.4818H32.2848L30.8382 32.223C30.5188 32.8475 30.8138 33.7308 31.4474 34.0505C32.0719 34.3699 32.9551 34.0749 33.2748 33.4413L35.6352 28.7964C36.0594 28.0306 35.5158 26.9078 34.6454 26.8167H33.2748H25.2035H23.833ZM43.0213 26.8167C39.6816 26.8167 36.9297 29.5688 36.9297 32.9082C36.9297 36.248 39.6816 39 43.0213 39C46.3609 39 49.0365 36.248 49.0365 32.9082C49.0365 29.5688 46.3609 26.8167 43.0213 26.8167ZM56.2703 26.8167C52.9307 26.8167 50.1788 29.5688 50.1788 32.9082C50.1788 36.248 52.9307 39 56.2703 39C59.6099 39 62.3618 36.248 62.3618 32.9082C62.3618 29.5688 59.6099 26.8167 56.2703 26.8167ZM64.6462 26.8167C64.4225 26.8327 64.2065 26.9051 64.0182 27.0269C63.8299 27.1488 63.6754 27.3161 63.5691 27.5136C63.4628 27.711 63.4081 27.9322 63.41 28.1565C63.4119 28.3807 63.4704 28.6008 63.5801 28.7964L66.0168 33.4413C66.2026 33.7075 66.4787 33.8973 66.7938 33.9752C67.109 34.0532 67.4417 34.0141 67.7302 33.8652C68.0187 33.7163 68.2433 33.4676 68.3623 33.1656C68.4813 32.8636 68.4867 32.5287 68.3773 32.223L65.9407 27.5781C65.8266 27.3357 65.642 27.1333 65.411 26.9975C65.1801 26.8617 64.9135 26.7986 64.6462 26.8167ZM15.914 26.8922C12.5744 26.8922 9.82245 29.5681 9.82245 32.9074C9.82245 36.2471 12.5744 38.999 15.914 38.999C19.2533 38.999 22.0055 36.2471 22.0055 32.9074C22.0055 29.5681 19.2536 26.8922 15.914 26.8922ZM43.0213 29.4811C44.9216 29.4811 46.3716 31.0071 46.3716 32.9074C46.3716 34.8077 44.9216 36.3341 43.0213 36.3341C41.1209 36.3341 39.5947 34.8077 39.5947 32.9074C39.5947 31.0071 41.1209 29.4811 43.0213 29.4811ZM56.2703 29.4811C58.1706 29.4811 59.6967 31.0071 59.6967 32.9074C59.6967 34.8077 58.1706 36.3341 56.2703 36.3341C54.37 36.3341 52.8437 34.8077 52.8437 32.9074C52.8437 31.0071 54.37 29.4811 56.2703 29.4811ZM15.9152 29.5567C17.8153 29.5567 19.3416 31.0067 19.3416 32.907C19.3416 34.8073 17.8153 36.3333 15.9152 36.3333C14.0149 36.3333 12.4886 34.8073 12.4886 32.907C12.4886 31.0067 14.0146 29.5567 15.9152 29.5567Z" fill="#FF5E14"/>
</svg>
